<?xml version="1.0" encoding="UTF-8"?>
<!DOCTYPE svg PUBLIC "-//W3C//DTD SVG 1.1//EN" "http://www.w3.org/Graphics/SVG/1.1/DTD/svg11.dtd">
<!-- Creator: CorelDRAW 2020 (64-Bit) -->
<svg xmlns="http://www.w3.org/2000/svg" xml:space="preserve" width="26.2808mm" height="18.7261mm" version="1.1" shape-rendering="geometricPrecision" text-rendering="geometricPrecision" image-rendering="optimizeQuality" fill-rule="evenodd" clip-rule="evenodd"
viewBox="0 0 14571317 10382635"
 xmlns:xlink="http://www.w3.org/1999/xlink"
 xmlns:xodm="http://www.corel.com/coreldraw/odm/2003">
 <g id="Ebene_x0020_1">
  <metadata id="CorelCorpID_0Corel-Layer"/>
  <g>
   <path fill="#362071" fill-rule="nonzero" d="M9959314 7592046l0 378743c0,161510 -94700,306332 -261810,306332 -128133,0 -150422,-89100 -150422,-200488l0 -479042 -155966 0 0 518020c0,211688 94700,306332 272954,306332 155966,0 261810,-105789 295243,-183799l5544 0c0,0 -5544,27833 -5544,61266l0 105844 150366 0 0 -807663 -150366 0 0 -5544zm-295243 2311546c-144822,0 -233921,-116933 -233921,-284043 0,-161566 77955,-267354 217232,-267354 128077,0 228377,61266 228377,272899 0,211688 -100300,278499 -211688,278499l0 0zm211688 5600l0 0c5544,0 0,27833 0,50122l0 61266c0,161510 -116988,228377 -256266,228377 -122533,0 -222777,-55722 -222777,-55722l-50122 122533c77955,39033 178255,66866 272899,66866 206088,0 406632,-100244 406632,-367654l0 -774230 -150366 0 0 72411c0,16744 0,27889 0,27889l-5600 0c0,0 -61266,-116988 -250666,-116988 -222777,0 -350910,172655 -350910,401032 0,233977 133677,412176 362054,412176 122533,0 194944,-50122 245121,-128077l0 0zm-701875 -1503938c33433,0 55722,-5544 55722,-5544l0 -139277c0,0 -16689,5544 -38978,5544 -61266,0 -172655,-22233 -172655,-183799l0 -356454 194944 0 0 -122533 -194944 0 0 -233977 -150422 0 0 233977 -111388 0 0 122533 105844 0 0 373198c0,272899 206088,306332 311877,306332l0 0zm-740797 1236584c0,-167110 128133,-284099 278499,-284099 150422,0 278499,116988 278499,284099 0,167055 -122533,289643 -278499,289643 -155966,0 -278499,-122588 -278499,-289643l0 0zm-155966 0c0,245066 194944,423320 434465,423320 239521,0 434465,-178255 434465,-423320 0,-245121 -194944,-423376 -434465,-423376 -245066,0 -434465,178255 -434465,423376l0 0zm311932 -2049792l-155966 0 0 807663 155966 0 0 -807663zm-155966 -161566l155966 0 0 -155966 -155966 0 0 155966zm-378743 1487249l-155966 0 0 902307c0,200544 128077,228377 217232,228377 27833,0 50122,-5544 50122,-5544l0 -139277c0,0 -11144,0 -27833,0 -50177,0 -83555,-16689 -83555,-116933l0 -868930zm-150422 -1314539l-111388 0 0 122533 105844 0 0 373198c0,267354 206088,300788 306332,300788 33433,0 55722,-5600 55722,-5600l0 -139222c0,0 -16744,5544 -38978,5544 -61266,0 -172710,-22289 -172710,-183799l0 -356510 194944 0 0 -122533 -194944 0 0 -233921 -150366 0 0 239521 5544 0zm-885619 2038647c0,-167110 128077,-284099 278499,-284099 150366,0 278499,116988 278499,284099 0,167055 -122533,289643 -278499,289643 -155966,0 -278499,-122588 -278499,-289643l0 0zm-161566 0c0,245066 194944,423320 434465,423320 239521,0 434465,-178255 434465,-423320 0,-245121 -194944,-423376 -434465,-423376 -239521,0 -434465,178255 -434465,423376l0 0zm-746397 -724108l-155966 0 0 1125140 155966 0 0 -378798c0,-38978 5600,-72411 11144,-105789 33433,-116988 133677,-200544 256266,-200544 128077,0 150366,89100 150366,200544l0 478987 155966 0 0 -518020c0,-206088 -89100,-306332 -278499,-306332 -161510,0 -261810,100244 -295243,178255l-5544 0c0,0 5544,-27833 5544,-66866l0 -406576zm-1080562 724108c0,239466 178255,423320 434465,423320 211633,0 323076,-128133 323076,-128133l-61266 -111388c0,0 -100300,105844 -250666,105844 -167110,0 -284099,-128133 -284099,-289643 0,-167110 116988,-284099 278499,-284099 139277,0 222832,94700 222832,94700l72411 -105844c0,0 -100300,-116988 -300788,-116988 -256210,-11144 -434465,172710 -434465,412232l0 0zm729653 -1247728l155966 0 0 -1125140 -155966 0 0 1125140zm-1119595 -128133l0 0c0,-5544 33433,-33378 66866,-77955l406632 -512476 0 -89100 -662842 0 0 133677 378743 0c50122,0 78011,-5544 78011,-5544l0 5544c0,0 -33433,33433 -66866,72411l-406632 512476 0 89100 696275 0 0 -133677 -412176 0c-50122,5544 -78011,5544 -78011,5544l0 0zm-484587 974774l339765 796519 -38978 94700c-27833,72411 -83555,116988 -144822,116988 -50122,0 -94700,-33433 -94700,-33433l-55667 116988c0,0 66811,50122 155966,50122 111388,0 211633,-66866 261755,-189399l378798 -952485 -167110 0 -194944 529164c-16689,38978 -27833,94700 -27833,94700l-5600 0c0,0 -16689,-55722 -27833,-94700l-200544 -529164 -178255 0zm94700 -1648704l-155966 0 0 807663 155966 0 0 -807663zm0 -323076l-155966 0 0 155966 155966 0 0 -155966zm-679531 2567812l-72411 111388c0,0 105844,116988 306332,116988 178255,0 289643,-100300 289643,-233977 0,-261810 -412176,-233921 -412176,-378743 0,-72411 66866,-100300 133677,-100300 128133,0 200544,72411 200544,72411l61266 -116933c0,0 -83555,-89155 -261810,-89155 -161510,0 -289643,83555 -289643,228377 0,261810 412176,233977 412176,378798 0,66811 -66811,100244 -133677,100244 -144822,5600 -233921,-89100 -233921,-89100l0 0zm-1832559 -596031l-150422 0 0 807663 150422 0 0 -328621c0,-50122 5544,-100244 16689,-144822 38978,-116988 128133,-189399 228377,-189399 22289,0 44578,5600 44578,5600l0 -150422c0,0 -16744,-5544 -38978,-5544 -122588,0 -217232,94700 -256266,211633l-5544 0c0,0 5544,-27833 5544,-61266l0 -144822 5600 0zm200488 -1648704l-155911 0 0 807663 155911 0 0 -807663zm-155911 -161566l155911 0 0 -155966 -155911 0 0 155966zm-774286 467898c22289,-133677 116988,-206088 233977,-206088 105844,0 189344,66811 194944,206088l-428920 0zm-5544 116988l590431 0c0,0 5544,-44578 5544,-66866 0,-206088 -122533,-378743 -350910,-378743 -228377,0 -401032,167110 -401032,423320 0,239521 172655,423320 428865,423320 194999,0 311932,-116988 311932,-116988l-61266 -111388c0,0 -100244,94700 -239521,94700 -150366,0 -278499,-89155 -284043,-267354l0 0zm-311932 1626471c0,-167110 128133,-284099 278499,-284099 150422,0 278499,116988 278499,284099 0,167055 -122533,289643 -278499,289643 -155966,0 -278499,-122588 -278499,-289643l0 0zm-155966 0c0,245066 194944,423320 434465,423320 239521,0 434465,-178255 434465,-423320 0,-245121 -194944,-423376 -434465,-423376 -245066,0 -434465,178255 -434465,423376l0 0zm-434465 -389943l-100244 0 0 122533 100244 0 0 668442 150366 0 0 -668442 189399 0 0 -122533 -189399 0 0 -33433c0,-150366 111444,-167055 167110,-167055 22289,0 39033,5544 39033,5544l0 -133677c0,0 -22289,-5544 -61322,-5544 -100244,0 -300732,33378 -300732,300732l0 33433 5544 0zm144822 -1982925l-155966 0 0 1125140 662842 0 0 -139222 -501331 0 0 -985918 -5544 0zm-139277 -1988525l2729378 0 0 -690675 -1403694 0c-105789,0 -178199,5544 -228377,11144 50177,-44578 133733,-128133 222832,-245121l1364661 -1710026 0 -445609 -2629078 0 0 690730 1303395 0c105844,0 178255,-5600 228377,-5600 -44578,44578 -128133,128133 -222777,245121l-1364716 1709971 0 440065zm2684800 2712633c0,183799 -105844,289643 -233921,289643 -150422,0 -228377,-144822 -228377,-284099 0,-206088 111388,-289643 233921,-289643 133677,0 228377,111444 228377,284099l0 0zm155966 0c0,-250666 -139222,-423320 -356454,-423320 -189399,0 -256266,139222 -256266,139222l-5544 0c0,0 5544,-27833 5544,-66811l0 -367654 -155966 0 0 1125195 144822 0 0 -61322c0,-33378 -5544,-61266 -5544,-61266l5544 0c0,0 72411,139277 250666,139277 217232,0 373198,-167110 373198,-423320l0 0zm284099 1281106c0,133677 -83555,217232 -217232,217232l-228377 0 0 -434465 228377 0c133677,0 217232,77955 217232,217232l0 0zm-194999 -356454l-412176 0 0 1125140 155966 0 0 -417776 250666 0c206088,0 350910,-144822 350910,-356454 5600,-211688 -139277,-350910 -345365,-350910l0 0zm250666 -1325683l-150366 0 0 807663 155966 0 0 -378798c0,-38978 5544,-77955 11144,-105844 33378,-116933 133677,-194944 256210,-194944 128133,0 150366,89155 150366,200544l0 479042 155966 0 0 -518020c0,-206143 -89100,-306388 -278499,-306388 -172655,0 -272899,116988 -300788,183799l-5544 0c0,0 5544,-27833 5544,-61266l0 -105789zm2116658 -3843373c0,629409 -367654,913507 -735253,913507 -501331,0 -729708,-473498 -729708,-907963 0,-685075 378798,-930196 735253,-930196 434465,0 729708,373198 729708,924652l0 0zm807663 -11144c0,-963629 -551453,-1609782 -1370261,-1609782 -562598,0 -857785,311932 -952485,451209 0,-38978 5600,-83555 5600,-133677l0 -245121 -740852 0 0 4266693 802119 0 0 -1297795c0,-83555 -5600,-150422 -5600,-200544 94700,111388 367654,378743 852241,378743 829952,0 1409239,-657242 1409239,-1609727l0 0zm428865 3832229c-172655,0 -272899,116933 -300788,183799l-5544 0c0,0 5544,-27833 5544,-61266l0 -105844 -150366 0 0 807663 155966 0 0 -373198c0,-38978 5544,-77955 11144,-105844 33433,-116933 133677,-194944 256210,-194944 128133,0 150422,89155 150422,200544l0 479042 155911 0 0 -518020c0,-206088 -89100,-311932 -278499,-311932l0 0zm-122533 -5703765l796519 0 0 -857785 -796519 0 0 857785zm0 3414453l802119 0 0 -3080287 -802119 0 0 3080287zm1141884 2378412c0,0 -83555,-89100 -261810,-89100 -161510,0 -289643,83555 -289643,228377 0,261755 412176,233921 412176,378743 0,66866 -66811,100244 -133677,100244 -139222,0 -228377,-94644 -228377,-94644l-72411 111388c0,0 105844,116933 306388,116933 178255,0 289643,-100244 289643,-233921 0,-261810 -412176,-233921 -412176,-378743 0,-72411 66811,-100300 133677,-100300 128077,0 200488,72411 200488,72411l55722 -111388zm2239135 -3926928c0,685130 -378743,930252 -735253,930252 -434465,0 -729653,-373198 -729653,-924652 0,-629409 367599,-913507 735253,-913507 501331,0 729653,473443 729653,907907l0 0zm16744 1548516l763086 0 0 -4272238 -802063 0 0 1353517c0,38978 0,77955 0,105844 -83555,-111388 -334221,-345365 -857785,-345365 -835552,0 -1398094,646153 -1398094,1609782 0,963574 551398,1609727 1370206,1609727 545909,0 829952,-317476 930196,-462298 0,33378 -5544,72411 -5544,116933l0 284099zm779775 3124809c33433,0 55722,-5544 55722,-5544l0 -139277c0,0 -16689,5544 -38978,5544 -61266,0 -172655,-22233 -172655,-183799l0 -356454 194944 0 0 -122533 -194944 0 0 -233977 -150422 0 0 233977 -111388 0 0 122533 105844 0 0 373198c5544,272899 211633,306332 311877,306332l0 0zm261810 835497l-167110 0 -194944 529164c-16689,38978 -27833,94700 -27833,94700l-5600 0c0,0 -16689,-55722 -27833,-94700l-200488 -529164 -172710 0 339765 796519 -38978 94700c-27833,72411 -83555,116988 -144822,116988 -50122,0 -94700,-33433 -94700,-33433l-55667 116988c0,0 66811,50122 155966,50122 111388,0 211633,-66866 261755,-189399l373198 -952485zm506876 -1342372l-428865 0c22289,-133677 116933,-206088 233921,-206088 105844,0 189399,66811 194944,206088l0 0zm-189344 -328621c-228377,0 -401087,167110 -401087,423320 0,239521 172710,423320 428920,423320 194944,0 311932,-116988 311932,-116988l-61266 -111388c0,0 -100300,94700 -239521,94700 -144822,0 -267354,-89100 -278499,-267354l590431 0c0,0 5544,-44578 5544,-66866 -11144,-206088 -133677,-378743 -356454,-378743l0 0zm1459361 -5497677l0 -194944c-289643,0 -417776,-128133 -417776,-345365 0,-161510 0,-518020 0,-518020l-206088 0c0,0 0,373198 0,545853 0,39033 5544,83555 16689,122533 66866,261810 311932,389943 607175,389943l0 0zm913452 -495731c-5544,161510 -150366,295188 -311932,295188 -89100,0 -267354,0 -267354,0 0,0 0,-417721 0,-512420 0,-139277 89155,-233977 217232,-245121 55722,-5544 105844,-5544 161566,0 105844,11144 194944,105844 200488,211688 0,89100 0,167110 0,250666l0 0zm189399 83555c16689,-105844 16689,-211688 11144,-317532 -5544,-211633 -139277,-378743 -339765,-417721 -72411,-16744 -144822,-11144 -217232,-11144 -239521,0 -434465,194944 -434465,434465 0,423320 0,852185 0,1275506l0 44578 206088 0 0 -590431c89100,0 178255,0 261810,0 250610,0 473443,-178199 512420,-417721l0 0zm529164 -50177c0,774286 -629409,1409239 -1409239,1409239 -774230,0 -1409239,-629409 -1409239,-1409239 0,-779775 629464,-1409183 1409239,-1409183 779830,0 1409239,634953 1409239,1409183l0 0zm206088 0c0,-891163 -724108,-1609727 -1609727,-1609727 -885674,0 -1609782,724108 -1609782,1609727 0,885674 724108,1609782 1609782,1609782 885619,0 1609727,-718564 1609727,-1609782z"/>
  </g>
 </g>
</svg>
